<svg xmlns="http://www.w3.org/2000/svg" width="96" height="88" viewBox="0 0 96 88" fill="none">
      <line x1="9" y1="47" x2="15" y2="30" stroke="#4FAE87" stroke-width="2.6" stroke-linecap="round" />
      <line x1="15" y1="30" x2="29" y2="16" stroke="#4FAE87" stroke-width="2.6" stroke-linecap="round" />
      <line x1="29" y1="16" x2="47" y2="11" stroke="#4FAE87" stroke-width="2.6" stroke-linecap="round" />
      <line x1="47" y1="11" x2="63" y2="17" stroke="#4FAE87" stroke-width="2.6" stroke-linecap="round" />
      <line x1="63" y1="17" x2="77" y2="28" stroke="#4FAE87" stroke-width="2.6" stroke-linecap="round" />
      <line x1="77" y1="28" x2="84" y2="43" stroke="#4FAE87" stroke-width="2.6" stroke-linecap="round" />
      <line x1="84" y1="43" x2="75" y2="57" stroke="#4FAE87" stroke-width="2.6" stroke-linecap="round" />
      <line x1="60" y1="66" x2="43" y2="69" stroke="#4FAE87" stroke-width="2.6" stroke-linecap="round" />
      <line x1="43" y1="69" x2="27" y2="64" stroke="#4FAE87" stroke-width="2.6" stroke-linecap="round" />
      <line x1="27" y1="64" x2="16" y2="56" stroke="#4FAE87" stroke-width="2.6" stroke-linecap="round" />
      <line x1="16" y1="56" x2="9" y2="47" stroke="#4FAE87" stroke-width="2.6" stroke-linecap="round" />
      <line x1="29" y1="16" x2="33" y2="33" stroke="#4FAE87" stroke-width="2.6" stroke-linecap="round" />
      <line x1="47" y1="11" x2="52" y2="28" stroke="#4FAE87" stroke-width="2.6" stroke-linecap="round" />
      <line x1="52" y1="28" x2="43" y2="48" stroke="#4FAE87" stroke-width="2.6" stroke-linecap="round" />
      <line x1="43" y1="48" x2="43" y2="69" stroke="#4FAE87" stroke-width="2.6" stroke-linecap="round" />
      <line x1="77" y1="28" x2="65" y2="42" stroke="#4FAE87" stroke-width="2.6" stroke-linecap="round" />
      <line x1="65" y1="42" x2="60" y2="66" stroke="#4FAE87" stroke-width="2.6" stroke-linecap="round" />
      <line x1="43" y1="69" x2="40" y2="81" stroke="#4FAE87" stroke-width="2.6" stroke-linecap="round" />
      <circle cx="9" cy="47" r="3.4" fill="#4FAE87" />
      <circle cx="15" cy="30" r="3.0" fill="#4FAE87" />
      <circle cx="29" cy="16" r="3.4" fill="#4FAE87" />
      <circle cx="47" cy="11" r="3.0" fill="#4FAE87" />
      <circle cx="63" cy="17" r="3.4" fill="#4FAE87" />
      <circle cx="77" cy="28" r="3.0" fill="#4FAE87" />
      <circle cx="84" cy="43" r="3.4" fill="#4FAE87" />
      <circle cx="75" cy="57" r="3.0" fill="#4FAE87" />
      <circle cx="60" cy="66" r="3.4" fill="#4FAE87" />
      <circle cx="43" cy="69" r="3.0" fill="#4FAE87" />
      <circle cx="27" cy="64" r="3.4" fill="#4FAE87" />
      <circle cx="16" cy="56" r="2.6" fill="#4FAE87" />
      <circle cx="33" cy="33" r="2.8" fill="#4FAE87" />
      <circle cx="52" cy="28" r="2.8" fill="#4FAE87" />
      <circle cx="43" cy="48" r="3.0" fill="#4FAE87" />
      <circle cx="65" cy="42" r="2.8" fill="#4FAE87" />
      <circle cx="40" cy="81" r="3.0" fill="#4FAE87" />
      <circle cx="23" cy="23" r="1.7" fill="#4FAE87" />
      <circle cx="41" cy="22" r="1.5" fill="#4FAE87" />
      <circle cx="57" cy="25" r="1.7" fill="#4FAE87" />
      <circle cx="72" cy="38" r="1.5" fill="#4FAE87" />
      <circle cx="20" cy="41" r="1.5" fill="#4FAE87" />
      <circle cx="31" cy="44" r="1.7" fill="#4FAE87" />
      <circle cx="56" cy="52" r="1.5" fill="#4FAE87" />
      <circle cx="31" cy="57" r="1.7" fill="#4FAE87" />
      <circle cx="52" cy="57" r="1.5" fill="#4FAE87" />
      <circle cx="24" cy="50" r="1.3" fill="#4FAE87" />
      <circle cx="61" cy="32" r="1.3" fill="#4FAE87" />
      <circle cx="37" cy="27" r="1.3" fill="#4FAE87" />
</svg>
